<svg xmlns="http://www.w3.org/2000/svg" width="150" height="93.75" viewBox="0 0 150 93.75">
  <g id="Group_686" data-name="Group 686" transform="translate(-14736 -17434)">
    <g id="Rectangle_204" data-name="Rectangle 204" transform="translate(14736 17434)" fill="#fff" stroke="#c4c4c4" stroke-width="2">
      <rect width="150" height="93.75" rx="10" stroke="none"/>
      <rect x="1" y="1" width="148" height="91.75" rx="9" fill="none"/>
    </g>
    <g id="Page-1" transform="translate(14744.55 17465)">
      <g id="pp_fc_hl" transform="translate(1.45)">
        <g id="pp_h_rgb">
          <path id="Fill-1" d="M179.995,20.543c-.393,2.583-2.366,2.583-4.275,2.583h-1.085L175.4,18.3a.6.6,0,0,1,.592-.506h.5c1.3,0,2.526,0,3.158.74a2.4,2.4,0,0,1,.35,2.006Zm-.831-6.739h-7.2a1,1,0,0,0-.987.844L168.07,33.1a.6.6,0,0,0,.592.693h3.692a.7.7,0,0,0,.691-.591l.826-5.231a1,1,0,0,1,.987-.844h2.277c4.74,0,7.476-2.294,8.191-6.841a5.541,5.541,0,0,0-.918-4.645c-1.023-1.2-2.837-1.838-5.245-1.838Z" transform="translate(-79.177 -6.703)" fill="#2790c3" fill-rule="evenodd"/>
          <path id="Fill-2" d="M83.815,20.543c-.393,2.583-2.366,2.583-4.274,2.583H78.455l.761-4.823a.6.6,0,0,1,.593-.506h.5c1.3,0,2.526,0,3.158.74a2.4,2.4,0,0,1,.35,2.006Zm-.83-6.739h-7.2a1,1,0,0,0-.987.844L71.891,33.1a.6.6,0,0,0,.593.693h3.436a1,1,0,0,0,.988-.844l.785-4.978a1,1,0,0,1,.987-.844h2.277c4.74,0,7.476-2.294,8.191-6.841a5.541,5.541,0,0,0-.918-4.645c-1.024-1.2-2.837-1.838-5.245-1.838Z" transform="translate(-33.865 -6.703)" fill="#27346a" fill-rule="evenodd"/>
          <path id="Fill-3" d="M113.948,32.7a3.842,3.842,0,0,1-3.889,3.291,2.67,2.67,0,0,1-2.854-3.351,3.856,3.856,0,0,1,3.862-3.316,2.905,2.905,0,0,1,2.3.939,2.968,2.968,0,0,1,.584,2.437Zm4.8-6.707H115.3a.6.6,0,0,0-.592.506l-.152.963-.241-.349c-.746-1.083-2.409-1.445-4.07-1.445a7.924,7.924,0,0,0-7.692,6.931,6.506,6.506,0,0,0,1.283,5.294,5.393,5.393,0,0,0,4.34,1.752,6.6,6.6,0,0,0,4.77-1.971l-.154.958a.6.6,0,0,0,.592.694h3.1a1,1,0,0,0,.987-.844l1.863-11.8a.6.6,0,0,0-.592-.693Z" transform="translate(-48.266 -12.236)" fill="#27346a" fill-rule="evenodd"/>
          <path id="Fill-4" d="M210.128,32.7a3.842,3.842,0,0,1-3.889,3.291,2.669,2.669,0,0,1-2.854-3.351,3.856,3.856,0,0,1,3.862-3.316,2.9,2.9,0,0,1,2.3.939,2.968,2.968,0,0,1,.584,2.437Zm4.8-6.707h-3.446a.6.6,0,0,0-.592.506l-.152.963-.241-.349c-.747-1.083-2.409-1.445-4.07-1.445a7.924,7.924,0,0,0-7.692,6.931,6.507,6.507,0,0,0,1.282,5.294,5.394,5.394,0,0,0,4.34,1.752,6.6,6.6,0,0,0,4.77-1.971l-.153.958a.6.6,0,0,0,.592.694h3.1a1,1,0,0,0,.988-.844l1.863-11.8a.6.6,0,0,0-.593-.693Z" transform="translate(-93.647 -12.236)" fill="#2790c3" fill-rule="evenodd"/>
          <g id="Group-10">
            <path id="Fill-5" d="M153.351,26.278h-3.463a1,1,0,0,0-.827.438l-4.778,7.037-2.025-6.762a1,1,0,0,0-.958-.713h-3.4a.6.6,0,0,0-.568.793l3.814,11.194-3.587,5.062a.6.6,0,0,0,.489.947h3.46a1,1,0,0,0,.822-.431l11.518-16.624a.6.6,0,0,0-.493-.942" transform="translate(-64.678 -12.52)" fill="#27346a" fill-rule="evenodd"/>
            <path id="Fill-7" d="M234.194,14.31,231.24,33.1a.6.6,0,0,0,.592.693H234.8a1,1,0,0,0,.987-.844L238.7,14.5a.6.6,0,0,0-.592-.693h-3.324a.6.6,0,0,0-.593.507" transform="translate(-108.849 -6.703)" fill="#2790c3" fill-rule="evenodd"/>
            <path id="Fill-8" d="M13.655,30.965l.967-6.134.062-.34a1.26,1.26,0,0,1,1.245-1.063H16.7a13.994,13.994,0,0,0,3.5-.407,8.871,8.871,0,0,0,2.933-1.33,7.923,7.923,0,0,0,2.214-2.423,11.453,11.453,0,0,0,1.341-3.687,9.648,9.648,0,0,0,.136-3.327A5.019,5.019,0,0,0,25.66,9.688a4.891,4.891,0,0,0-1.4-1.079L24.248,8.6V8.586A8.3,8.3,0,0,0,24.226,5.4a5.649,5.649,0,0,0-1.31-2.47C21.526,1.347,19,.544,15.406.544H5.537a1.387,1.387,0,0,0-1.37,1.171L.057,27.775a.823.823,0,0,0,.812.95H6.992l-.005.029-.42,2.666a.717.717,0,0,0,.707.828h5.135a1.211,1.211,0,0,0,1.2-1.022l.05-.262" transform="translate(-0.022 -0.519)" fill="#27346a" fill-rule="evenodd"/>
            <path id="Fill-9" d="M10.115,8.6a1.235,1.235,0,0,1,1.22-1.043h7.736a16.137,16.137,0,0,1,2.552.186q.335.054.651.124t.614.157c.1.029.2.059.293.091a7,7,0,0,1,1.069.451c.387-2.47,0-4.151-1.339-5.673C21.441,1.216,18.784.5,15.384.5H5.515A1.412,1.412,0,0,0,4.12,1.689L.011,27.749a.847.847,0,0,0,.837.979H6.94L10.115,8.6" transform="translate(0 -0.498)" fill="#27346a" fill-rule="evenodd"/>
          </g>
          <path id="Fill-11" d="M29.94,15.615h0c-.029.189-.062.38-.1.578-1.3,6.682-5.754,8.993-11.441,8.993H15.5a1.407,1.407,0,0,0-1.39,1.192l-1.9,12.067a.741.741,0,0,0,.732.856h5.136a1.235,1.235,0,0,0,1.22-1.043l.05-.261.967-6.135.062-.339a1.235,1.235,0,0,1,1.22-1.043h.768c4.975,0,8.871-2.021,10.009-7.867.475-2.443.23-4.481-1.028-5.915a4.891,4.891,0,0,0-1.406-1.084" transform="translate(-5.689 -7.547)" fill="#2790c3" fill-rule="evenodd"/>
          <path id="Fill-12" d="M30.25,14.189q-.3-.087-.614-.157t-.651-.124a16.137,16.137,0,0,0-2.552-.186H18.7a1.235,1.235,0,0,0-1.22,1.043L15.831,25.19l-.048.3a1.407,1.407,0,0,1,1.39-1.192h2.9c5.687,0,10.14-2.31,11.441-8.993.039-.2.072-.389.1-.578a7,7,0,0,0-1.069-.451c-.1-.032-.193-.062-.293-.091" transform="translate(-7.361 -6.665)" fill="#1f264f" fill-rule="evenodd"/>
        </g>
      </g>
    </g>
  </g>
</svg>
