<svg xmlns="http://www.w3.org/2000/svg" width="150" height="93.75" viewBox="0 0 150 93.75">
  <g id="Group_673" data-name="Group 673" transform="translate(-11915 -17464)">
    <g id="Rectangle_220" data-name="Rectangle 220" transform="translate(11915 17464)" fill="#1334cb" stroke="#1334cb" stroke-width="2">
      <rect width="150" height="93.75" rx="10" stroke="none"/>
      <rect x="1" y="1" width="148" height="91.75" rx="9" fill="none"/>
    </g>
    <path id="Path_250" data-name="Path 250" d="M42.7,6.7,28.354,46.232H18.989l-7.142-31.5c-.4-1.949-.808-2.651-2.089-3.509A34.675,34.675,0,0,0,1,7.871L1.2,6.7H16.294c1.954,0,3.638,1.481,4.11,4.054L24.177,33.6l9.23-26.9ZM79.492,33.367C79.559,22.919,67.028,22.3,67.095,17.7c0-1.4,1.213-2.963,3.773-3.275a15.2,15.2,0,0,1,8.759,1.793l1.55-8.5A22.018,22.018,0,0,0,72.889,6C64.13,6,57.932,11.38,57.864,19.1c-.067,5.692,4.447,8.888,7.748,10.76,3.436,1.949,4.649,3.2,4.581,4.912,0,2.651-2.762,3.82-5.323,3.9a16.67,16.67,0,0,1-9.1-2.5l-1.617,8.655a24.6,24.6,0,0,0,9.9,2.105C73.361,46.856,79.492,41.553,79.492,33.367Zm23.244,12.865h8.22L103.747,6.7H96.2a4.1,4.1,0,0,0-3.773,2.885L79.088,46.232h9.3L90.2,40.306h11.386ZM92.765,32.275l4.649-14.814,2.7,14.814ZM55.439,6.7l-7.344,39.53H39.2L46.545,6.7Z" transform="translate(11934 17484)" fill="#fff"/>
  </g>
</svg>
