<svg xmlns="http://www.w3.org/2000/svg" width="150" height="93.75" viewBox="0 0 150 93.75">
  <g id="Group_674" data-name="Group 674" transform="translate(-12548 -17525)">
    <rect id="Rectangle_189" data-name="Rectangle 189" width="150" height="93.75" rx="10" transform="translate(12548 17525)" fill="#006fcf"/>
    <path id="Path_185" data-name="Path 185" d="M91.3,24.912h12.548v3.041H95.112V30.6h8.473v2.71H95.112v2.777h8.732v2.975H91.3Zm36.675,5.553c4.722,0,5.11,2.38,5.11,4.628a4.464,4.464,0,0,1-1.495,3.039,4.274,4.274,0,0,1-3.162,1.06h-8.279V36.15h6.468c1.1,0,2.652,0,2.652-1.388s0-1.058-1.423-1.19h-2.587c-4.269,0-5.239-2.049-5.239-4.363a4.184,4.184,0,0,1,4.14-4.165h8.538v3.107h-6.468c-1.358,0-2.781,0-2.781,1.19s.712,1.058,1.617,1.124h2.911Zm-14.359,0c4.657,0,5.11,2.38,5.11,4.628a4.429,4.429,0,0,1-4.722,4.1h-8.215V36.15h6.468c1.1,0,2.652,0,2.652-1.388s0-1.058-1.358-1.19h-2.652c-4.269,0-5.239-2.049-5.239-4.363a4.184,4.184,0,0,1,4.14-4.165h8.473v3.107h-5.886c-1.358,0-2.781,0-2.781,1.19s.712,1.058,1.617,1.124h2.393ZM68.333,24.912H55.074L50.74,29.341l-4.269-4.429H31.077V39.059H45.63l4.592-4.694,4.851,4.694h7.309V34.233h5.175a4.656,4.656,0,0,0,5.5-3.57,5.808,5.808,0,0,0,0-1.52,4.2,4.2,0,0,0-3.946-4.363ZM43.754,36.084H34.828V33.307h8.409V30.6H34.828V27.953h9.314l3.687,3.834Zm14.683,1.653-5.5-5.884,5.5-5.553Zm8.6-6.611H62.253V27.953H67.04a1.746,1.746,0,0,1,2.07,1.322,1.787,1.787,0,0,1-1.294,2.115Zm19.793,1.256a3.765,3.765,0,0,0,2.652-3.9,4.11,4.11,0,0,0-4.2-3.9H74.931V39.059h3.816V34.035h5.045a2.169,2.169,0,0,1,1.876,2.314h0v2.578h3.687V36.018a2.918,2.918,0,0,0-1.94-3.57Zm-3.3-1.454H78.747V27.953h4.786a1.715,1.715,0,0,1,1.317.255,1.787,1.787,0,0,1,.753,1.134h0a2.45,2.45,0,0,1-2.134,1.587Zm-1.746-11.04V6H77.906V20.152ZM46.147,6H59.084V9.046H50.028V11.69h8.538V14.4H50.028v2.777h8.8v3.041H45.889ZM73.12,13.739a3.832,3.832,0,0,0,2.652-3.966A4.041,4.041,0,0,0,71.567,6H61.089V20.152H64.97V15.128h5.045a2.054,2.054,0,0,1,1.427.712,2.145,2.145,0,0,1,.513,1.536v2.777h3.752V17.243a2.9,2.9,0,0,0-.259-2.163,2.791,2.791,0,0,0-1.682-1.34Zm-3.3-1.52H64.97V8.98h4.851a1.715,1.715,0,0,1,1.317.255,1.787,1.787,0,0,1,.753,1.134h0a2.5,2.5,0,0,1-2.2,1.653ZM37.286,6,32.5,15.458,27.778,6H21.7V19.623L14.971,6H9.8L2.94,20.152H7.015l1.552-3.173h7.7l1.488,3.173h7.827V9.641l5.175,10.511h3.493l5.3-10.379V20.152h3.816V6ZM9.8,13.872l2.329-4.958,2.393,4.958ZM121.567,6v9.718L115.1,6h-5.757V19.226L102.873,6h-5.11l-5.3,10.974H89.937a2.832,2.832,0,0,1-1.976-1.127,2.957,2.957,0,0,1-.547-2.244h0v-.992c0-3.305,2.005-3.57,4.592-3.57H94.4V6H89.355a6.971,6.971,0,0,0-4.549,2.949,7.265,7.265,0,0,0-1.143,5.38,7.184,7.184,0,0,0,6.08,5.884h5.11l1.488-3.173H104.1l1.488,3.173h7.7V9.773l6.986,10.379h5.239V6ZM97.828,13.938l2.523-5.024,2.393,4.958Z" transform="translate(12554.838 17549.197)" fill="#fff"/>
  </g>
</svg>
