<svg xmlns="http://www.w3.org/2000/svg" width="34.583" height="34.584" viewBox="0 0 34.583 34.584">
  <g id="Layer_33" data-name="Layer 33" transform="translate(-0.667 -0.71)">
    <path id="Path_192" data-name="Path 192" d="M35.25,18a17.29,17.29,0,1,0-1.48,7,1.22,1.22,0,0,0,.48-1v-.17a17.35,17.35,0,0,0,1-5.83ZM18,32.75c-.67,0-2-2.6-2.75-7.5h5.5C20,30.15,18.67,32.75,18,32.75Zm-3-10c-.13-1.44-.21-3-.21-4.75s.08-3.31.21-4.75h6c.13,1.44.21,3,.21,4.75s-.08,3.31-.21,4.75ZM3.25,18a14.66,14.66,0,0,1,.8-4.75h8.4c-.13,1.56-.2,3.17-.2,4.75s.07,3.19.2,4.75H4.05A14.66,14.66,0,0,1,3.25,18ZM18,3.25c.67,0,2,2.6,2.75,7.5h-5.5C16,5.85,17.33,3.25,18,3.25Zm5.55,10H32a14.5,14.5,0,0,1,0,9.5H23.6c.13-1.56.2-3.17.2-4.75s-.12-3.19-.25-4.75Zm7.28-2.5H23.27a24.74,24.74,0,0,0-1.9-7.1,14.81,14.81,0,0,1,9.46,7.1Zm-16.2-7.1a24.42,24.42,0,0,0-1.9,7.1H5.17a14.81,14.81,0,0,1,9.46-7.1ZM5.17,25.25h7.56a24.42,24.42,0,0,0,1.9,7.1,14.81,14.81,0,0,1-9.46-7.1Zm16.2,7.1a24.74,24.74,0,0,0,1.9-7.1h7.56a14.81,14.81,0,0,1-9.46,7.1Z" fill="#e1e1e1"/>
  </g>
</svg>
